<?xml version="1.0" encoding="utf-8"?>
<!-- Generator: Adobe Illustrator 19.2.1, SVG Export Plug-In . SVG Version: 6.00 Build 0)  -->
<svg version="1.1" id="レイヤー_1" xmlns="http://www.w3.org/2000/svg" xmlns:xlink="http://www.w3.org/1999/xlink" x="0px"
	 y="0px" viewBox="0 0 15645.3 5000" style="enable-background:new 0 0 15645.3 5000;" xml:space="preserve">
<style type="text/css">
	.st0{fill:#404041;}
</style>
<g>
	<path class="st0" d="M8589.4,2975.7c-568.8,0-1032.3-406.2-1032.3-993.1V990.7c0-587.8,444.2-989.9,1094-989.9h165
		c235.5,0,490.8,72.4,675.4,205.1c17,12,34.3,24.2,50.8,47.3c16.3,23.2,15.9,80.5,15.9,117.7c-0.3,339.2,1.4,1731.7,1.4,1731.7
		c0,281,6.1,614.2,53.3,735.2l14.1,61.2c0,22.3-7.7,40-20.7,54.4c-15.3,15.8-44.8,22.3-97.4,22.3H8589.4 M8651.1,499.7
		c-355.8,0-563,187.1-563,510.8v952.2c0,322.4,225.8,510,504.1,510c280.5,0,435.7-93.6,435.7-364.7V700.3
		c0-179.6-78.5-200.7-240.7-200.7H8651.1z M1034,2975.7c-568.8,0-1032.5-406.2-1032.5-993.1V990.7c0-587.8,444.2-989.9,1094-989.9
		h165c235.5,0,490.8,72.4,675.3,205.1c17.2,12,34.6,24.2,50.8,47.3c16.4,23.2,16,80.5,16,117.7c-0.3,339.2,1.2,1731.7,1.2,1731.7
		c0,281,7,614.2,53.4,735.2l14.2,61.2c0,22.3-7.7,40-20.8,54.4c-15.2,15.8-44.6,22.3-97.3,22.3H1034z M1095.5,499.7
		c-355.8,0-563,187.1-563,510.8v952.2c0,322.4,226,510,504.2,510c280.3,0,435.5-93.6,435.5-364.7V700.3
		c0-179.6-78.5-200.7-240.7-200.7H1095.5z M5173,62.7l-0.4,0.1l-16.7,4.6c-114.4,38.8-219.2,56.7-338.7,56.7
		c-119.5,0-223.6-18-338.8-56.6l-17.7-4.9C4343.6,23.2,4189.6,0.5,4047,0.5c-571.5,0-1036.2,402.2-1036.2,990v1985.2h531.5V1009.3
		c0-322.7,226-509.7,503-509.7c306.5,0,504.4,161.2,504.4,509.7v1966.4h530V1009.3c0-348.5,198.2-509.7,503.5-509.7
		c278.3,0,504.5,187,504.5,509.7v1966.4h529.6V990.5c0-587.8-463.3-990-1032.6-990C5442.7,0.5,5289.3,24.1,5173,62.7z
		 M10566.3,990.5v1985.2h531.7V1009.3c0-322.7,226-509.7,503.1-509.7c278.1,0,504.4,187,504.4,509.7v1966.4h529.8V990.5
		c0-587.8-462.8-990-1033-990C11030.8,0.5,10566.3,402.7,10566.3,990.5z M14607.4,2975.7c-569.9,0-1033.4-406.2-1033.4-993.1V990.7
		c0-587.8,445-989.9,1093.8-989.9h166.2c235.2,0,490.8,72.4,674.3,205.1c17.1,12,35.5,24.2,52,47.3c16,23.2,15.6,80.5,15.6,117.7
		c-0.3,339.2,1.2,1731.7,1.2,1731.7c0,281,6.1,614.2,53.5,735.2l13,61.2c0,22.3-6.6,40-19.7,54.4c-15.3,15.8-45.5,22.3-97.7,22.3
		H14607.4z M14667.9,499.7c-355.6,0-561.9,187.1-561.9,510.8v952.2c0,322.4,226,510,503.1,510c281.4,0,435.5-93.6,435.5-364.7V700.3
		c0-179.6-77.7-200.7-239.6-200.7H14667.9z"/>
	<path class="st0" d="M311.1,4768.3h-95.6l-214-571.7h124.6l137.5,402.7l137.8-402.7h124.3L311.1,4768.3 M775.2,4083.1H650.6v-121.5
		h124.6V4083.1z M772,4768.3H654.6v-571.7H772V4768.3z M1151.6,4774.7c-96,0-176.7-15.8-245-81.7l77.1-76.2
		c47.3,47.4,110,60.2,167.9,60.2c71.2,0,128.3-25,128.3-78.7c0-39.2-21.9-63.5-78.8-67.9l-93.1-8.4c-109-8.4-172.7-57.8-172.7-158.1
		c0-111.5,97.8-174.6,220.2-174.6c87.2,0,162.2,18.5,216.3,64.1l-73.9,73.3c-37.1-29.8-88.3-41.9-143.2-41.9
		c-70.4,0-106.5,30.5-106.5,73.5c0,34.3,18.1,60.5,80.7,66l92,7.3c109.3,9.6,173.7,60.5,173.7,161.8
		C1394.5,4713.2,1291.2,4774.7,1151.6,4774.7z M1891.3,4768.3v-57.7c-39.9,42.7-96.8,64-155.1,64c-60.6,0-109.8-18.5-144.2-52
		c-44.7-42.8-58.8-96.5-58.8-160.7v-365.4H1651v348.5c0,89.1,51.2,127.5,117.8,127.5c65.5,0,120.6-40.1,120.6-127.5v-348.5h117.5
		v571.7H1891.3z M2511.1,4768.3v-52.3c-41.9,41.9-82.8,58.6-154.8,58.6c-73.3,0-121.4-16.7-157.5-52
		c-29.5-29.7-45.9-74.3-45.9-122.7c0-95.6,68.7-164.5,201.4-164.5H2509v-40.9c0-71.4-36.8-106.8-128.2-106.8
		c-64.4,0-94.9,14.7-127.2,54.8l-77.9-70.6c55.3-63.2,113.1-82.6,210.1-82.6c160.4,0,241.1,66.8,241.1,196.9v382.1H2511.1z
		 M2509,4515.6h-136.4c-69.5,0-105.7,30.7-105.7,82.8c0,51.9,33.2,80.6,107.5,80.6c44.4,0,78.5-3.6,109.3-32.4
		c17.8-16.7,25.4-43.7,25.4-84.5V4515.6z M2962.1,4768.3c-111.9,0-160.3-73.5-160.3-158.1v-645h117.7v638.5
		c0,43.7,16.1,65.9,63.6,65.9h52.1v98.7H2962.1z M3696.3,4774.7c-131.1,0-260.3-79-260.3-292.7c0-214.8,129.3-292.6,260.3-292.6
		c80.7,0,137.5,23.1,192.6,80.7l-80.7,76.3c-37-39-65.5-54.1-111.9-54.1c-44.8,0-82.8,17.7-108.3,50.4
		c-24.7,31.7-34.5,72.2-34.5,139.3c0,66,9.8,107.9,34.5,139.6c25.5,32.4,63.5,51,108.3,51c46.4,0,74.9-15.1,111.9-54l80.7,75.5
		C3833.8,4751.6,3777,4774.7,3696.3,4774.7z M4411.9,4706.9c-37.8,39.2-95.6,67.8-174.7,67.8c-79.6,0-136.9-28.6-174.7-67.8
		c-55-55.9-69.3-128.3-69.3-225c0-95.7,14.2-168.1,69.3-225c37.8-38.1,95.1-67.6,174.7-67.6c79,0,136.9,29.6,174.7,67.6
		c55.2,56.8,69.3,129.2,69.3,225C4481.1,4578.6,4467,4651,4411.9,4706.9z M4323.7,4324.9c-21.9-21.3-52.3-32.7-86.5-32.7
		c-34.9,0-63.5,11.3-85.4,32.7c-36.1,35.4-40.8,95.1-40.8,157c0,61.4,4.7,121.8,40.8,156.2c21.9,21.3,50.5,34.4,85.4,34.4
		c34.2,0,64.6-13.1,86.5-34.4c34.9-34.4,39.9-94.8,39.9-156.2C4363.6,4420,4358.6,4360.3,4323.7,4324.9z M5350.8,4768.3V4420
		c0-89.3-51.2-127.7-116.7-127.7c-63.7,0-121.5,39.3-121.5,121.9v354.2h-117.7V4420c0-89.3-51.3-127.7-117.8-127.7
		c-65.5,0-120.6,39.3-120.6,127.7v348.4h-117.8v-571.7h115.9v56.8c39-41,97-64.1,154.9-64.1c73,0,129,28.5,166.1,83.7
		c47.3-56.8,106.1-83.7,183.1-83.7c59.7,0,113.1,19.4,148.2,51.7c44.6,43.1,61.5,97.9,61.5,162v365.3H5350.8z M6362.1,4768.3V4420
		c0-89.3-52.3-127.7-117.7-127.7c-63.6,0-120.6,39.3-120.6,121.9v354.2h-117.7V4420c0-89.3-52.6-127.7-117.8-127.7
		c-65.7,0-120.7,39.3-120.7,127.7v348.4H5650v-571.7h114.8v56.8c39.2-41,96.8-64.1,155.8-64.1c72.4,0,129.3,28.5,166.4,83.7
		c47.3-56.8,106.2-83.7,183.1-83.7c59.9,0,113.1,19.4,147.2,51.7c45.5,43.1,62.6,97.9,62.6,162v365.3H6362.1z M7013.6,4768.3v-57.7
		c-40.7,42.7-97,64-155.8,64c-60,0-109.3-18.5-144.2-52c-44.7-42.8-59-96.5-59-160.7v-365.4h117.7v348.5
		c0,89.1,52.3,127.5,117.8,127.5c65.7,0,120.6-40.1,120.6-127.5v-348.5h117.7v571.7H7013.6z M7665.8,4768.3V4420
		c0-89.3-52.1-127.7-117.5-127.7c-65.7,0-120.6,39.3-120.6,127.7v348.4h-117.8v-571.7h114.9v56.8c40.8-42.9,96.8-64.1,155.8-64.1
		c59.7,0,109,19.4,144.2,51.7c44.6,43.1,58.9,97.9,58.9,162v365.3H7665.8z M8080,4083.1h-124.3v-121.5H8080V4083.1z M8076.1,4768.3
		h-117.7v-571.7h117.7V4768.3z M8494.8,4774.7c-132,0-261.2-79-261.2-292.7c0-214.8,129.1-292.6,261.2-292.6
		c80.7,0,136.7,23.1,191.6,80.7l-80.7,76.3c-36.1-39-65.3-54.1-110.9-54.1c-45.5,0-83.5,17.7-108.4,50.4
		c-25.4,31.7-34.9,72.2-34.9,139.3c0,66,9.5,107.9,34.9,139.6c25,32.4,62.9,51,108.4,51c45.7,0,74.8-15.1,110.9-54l80.7,75.5
		C8631.5,4751.6,8575.5,4774.7,8494.8,4774.7z M9155.5,4768.3v-52.3c-42.6,41.9-82.6,58.6-155.8,58.6c-72.2,0-120.6-16.7-156.6-52
		c-29.5-29.7-45.7-74.3-45.7-122.7c0-95.6,67.5-164.5,201.3-164.5h154.6v-40.9c0-71.4-37-106.8-128-106.8
		c-64.6,0-95.7,14.7-128,54.8l-77-70.6c55-63.2,113-82.6,209.8-82.6c160.3,0,241,66.8,241,196.9v382.1H9155.5z M9153.4,4515.6
		h-137.5c-68.4,0-104.4,30.7-104.4,82.8c0,51.9,33.4,80.6,107.2,80.6c44.7,0,78.1-3.6,109.3-32.4c17.1-16.7,25.5-43.7,25.5-84.5
		V4515.6z M9626.7,4768.3c-110.1,0-160.4-77.2-160.4-158.9v-315.3h-66.5v-87.2h66.5V4033h117.7v173.9h113.1v87.2h-113.1v309.6
		c0,41.9,21,65.9,64.6,65.9h48.6v98.7H9626.7z M9963.6,4083.1H9839v-121.5h124.6V4083.1z M9960.7,4768.3H9843v-571.7h117.7V4768.3z
		 M10537.1,4706.9c-37.9,39.2-95.9,67.8-175.8,67.8c-79.7,0-135.6-28.6-173.8-67.8c-55-55.9-69.3-128.3-69.3-225
		c0-95.7,14.2-168.1,69.3-225c38.2-38.1,94.1-67.6,173.8-67.6c79.9,0,137.8,29.6,175.8,67.6c54.9,56.8,68.3,129.2,68.3,225
		C10605.4,4578.6,10592,4651,10537.1,4706.9z M10447.8,4324.9c-21.8-21.3-52.3-32.7-86.5-32.7c-34.1,0-63.6,11.3-85.5,32.7
		c-35,35.4-39.7,95.1-39.7,157c0,61.4,4.7,121.8,39.7,156.2c21.9,21.3,51.5,34.4,85.5,34.4c34.2,0,64.7-13.1,86.5-34.4
		c36-34.4,40.8-94.8,40.8-156.2C10488.7,4420,10483.8,4360.3,10447.8,4324.9z M11119.9,4768.3V4420c0-89.3-52.1-127.7-117.7-127.7
		c-65.7,0-121.7,39.3-121.7,127.7v348.4h-116.7v-571.7h114.8v56.8c40.8-42.9,97-64.1,155.9-64.1c59.7,0,109,19.4,144.2,51.7
		c44.7,43.1,59,97.9,59,162v365.3H11119.9z M11803.9,4515.6c0,98.4,53,159.7,147.9,159.7c65.8,0,100.7-17.8,142.6-58.5l74.1,68.6
		c-59.9,59.5-116,89.3-218.5,89.3c-146.1,0-262.9-75.2-262.9-292.7c0-185,97.8-292.6,247.6-292.6c156.7,0,248,113.2,248,274.9v51.3
		H11803.9z M12049.9,4357.4c-18.2-42.8-60-72.5-115.2-72.5c-54.9,0-97.7,29.7-116.7,72.5c-11.2,26.1-13.2,42.9-14.1,78h262
		C12065.1,4400.4,12062.2,4383.5,12049.9,4357.4z M12657.2,4768.3l-122.2-195.3l-122.8,195.3h-142.4l200.4-291.8l-191.8-279.9h141.4
		l115.1,185.8l114.6-185.8h141.4l-191.6,279.9l199.2,291.8H12657.2z M13340.3,4724.4c-32.3,31.7-83.6,50.2-141.5,50.2
		c-62.6,0-111.1-15.8-153.7-64.9v289.8h-117.7v-802.9h115.7v60.4c43.6-51.9,91.2-67.6,153.8-67.6c58.9,0,111.1,19.4,143.3,50.9
		c58.9,57.8,65.5,154.3,65.5,241.7C13405.9,4568.5,13399.2,4666.9,13340.3,4724.4z M13167.6,4292.2c-106.4,0-122.5,87.6-122.5,189.7
		c0,101.3,16.1,190.7,122.5,190.7c105.3,0,120.6-89.4,120.6-190.7C13288.2,4379.9,13272.9,4292.2,13167.6,4292.2z M13657.1,4515.6
		c0,98.4,52.3,159.7,148.2,159.7c65.5,0,100.7-17.8,141.4-58.5l75,68.6c-59.9,59.5-115.7,89.3-218.4,89.3
		c-146.2,0-262.9-75.2-262.9-292.7c0-185,97.8-292.6,247.9-292.6c156.6,0,247.6,113.2,247.6,274.9v51.3H13657.1z M13903,4357.4
		c-18.1-42.8-60-72.5-114.8-72.5c-55.2,0-97.8,29.7-117,72.5c-11.3,26.1-13.1,42.9-14.2,78h262.1
		C13918.1,4400.4,13914.6,4383.5,13903,4357.4z M14515.2,4330.7c-26.5-26.3-47.3-38.5-87.2-38.5c-63.5,0-116.7,49.3-116.7,128.4
		v347.7h-117.8v-571.7h115.8v61.2c29.5-40,89.4-68.5,154.8-68.5c57,0,99.6,14.7,139.7,54.7L14515.2,4330.7z M14924.5,4768.3
		c-109.4,0-160.4-77.2-160.4-158.9v-315.3h-66.4v-87.2h66.4V4033h117.8v173.9h113.1v87.2h-113.1v309.6c0,41.9,21,65.9,64.4,65.9
		h48.7v98.7H14924.5z M15357.1,4774.7c-96,0-176.7-15.8-245.2-81.7l77.1-76.2c47.2,47.4,110,60.2,168,60.2c71.2,0,128-25,128-78.7
		c0-39.2-21.8-63.5-78.9-67.9l-92.7-8.4c-109.3-8.4-173-57.8-173-158.1c0-111.5,97.8-174.6,220.3-174.6
		c87.3,0,162.4,18.5,216.4,64.1l-73.9,73.3c-37.3-29.8-88.3-41.9-144.4-41.9c-70.4,0-105.3,30.5-105.3,73.5
		c0,34.3,17.8,60.5,80.7,66l91.9,7.3c109.1,9.6,173.7,60.5,173.7,161.8C15599.9,4713.2,15496.6,4774.7,15357.1,4774.7z"/>
</g>
</svg>
