<?xml version="1.0" encoding="UTF-8" standalone="no"?>
<!-- Created with Inkscape (http://www.inkscape.org/) -->

<svg
   xmlns:dc="http://purl.org/dc/elements/1.1/"
   xmlns:cc="http://creativecommons.org/ns#"
   xmlns:rdf="http://www.w3.org/1999/02/22-rdf-syntax-ns#"
   xmlns:svg="http://www.w3.org/2000/svg"
   xmlns="http://www.w3.org/2000/svg"
   xmlns:sodipodi="http://sodipodi.sourceforge.net/DTD/sodipodi-0.dtd"
   xmlns:inkscape="http://www.inkscape.org/namespaces/inkscape"
   width="181.94458"
   height="64.333893"
   viewBox="0 0 48.139502 17.021675"
   version="1.1"
   id="svg3390"
   inkscape:version="0.92.0 r15299"
   sodipodi:docname="goodman global.svg">
  <defs
     id="defs3384">
    <clipPath
       id="clipPath2686"
       clipPathUnits="userSpaceOnUse">
      <path
         inkscape:connector-curvature="0"
         id="path2684"
         d="m 72.25,683.662 h 468 v 56.314 h -468 z" />
    </clipPath>
    <clipPath
       id="clipPath2696"
       clipPathUnits="userSpaceOnUse">
      <path
         inkscape:connector-curvature="0"
         id="path2694"
         d="m 1108.75,36.75 h 1239.7461 v 792.5 H 1108.75 Z" />
    </clipPath>
    <clipPath
       id="clipPath2704"
       clipPathUnits="userSpaceOnUse">
      <path
         inkscape:connector-curvature="0"
         id="path2702"
         d="m 1181,145.588 h 468 V 89.274 h -468 z" />
    </clipPath>
    <clipPath
       id="clipPath2714"
       clipPathUnits="userSpaceOnUse">
      <path
         inkscape:connector-curvature="0"
         id="path2712"
         d="M -1.73051,-14.72942 H 7.29888 V 2.22618 H -1.73051 Z" />
    </clipPath>
    <clipPath
       id="clipPath2724"
       clipPathUnits="userSpaceOnUse">
      <path
         inkscape:connector-curvature="0"
         id="path2722"
         d="M 289,2734.6479 H 2161 V 2959.904 H 289 Z" />
    </clipPath>
    <clipPath
       id="clipPath2732"
       clipPathUnits="userSpaceOnUse">
      <path
         inkscape:connector-curvature="0"
         id="path2730"
         d="m 950.4038,2753.7959 h 549.2046 v 186.9587 H 950.4038 Z" />
    </clipPath>
  </defs>
  <sodipodi:namedview
     id="base"
     pagecolor="#ffffff"
     bordercolor="#666666"
     borderopacity="1.0"
     inkscape:pageopacity="0.0"
     inkscape:pageshadow="2"
     inkscape:zoom="4.4569278"
     inkscape:cx="89.972289"
     inkscape:cy="31.166943"
     inkscape:document-units="mm"
     inkscape:current-layer="layer1"
     showgrid="false"
     fit-margin-top="0"
     fit-margin-left="0"
     fit-margin-right="0"
     fit-margin-bottom="0"
     units="px"
     inkscape:window-width="1280"
     inkscape:window-height="744"
     inkscape:window-x="-4"
     inkscape:window-y="-4"
     inkscape:window-maximized="1" />
  <metadata
     id="metadata3387">
    <rdf:RDF>
      <cc:Work
         rdf:about="">
        <dc:format>image/svg+xml</dc:format>
        <dc:type
           rdf:resource="http://purl.org/dc/dcmitype/StillImage" />
        <dc:title></dc:title>
      </cc:Work>
    </rdf:RDF>
  </metadata>
  <g
     inkscape:label="Layer 1"
     inkscape:groupmode="layer"
     id="layer1"
     transform="translate(-138.72459,-276.88531)">
    <g
       id="g2680"
       transform="matrix(0.35277777,0,0,-0.35277777,54.401105,536.5681)">
      <g
         id="g2682"
         clip-path="url(#clipPath2686)">
        <g
           id="g2688"
           transform="matrix(1,0,0,-1,-1108.75,829.25)">
          <g
             id="g2690">
            <g
               id="g2692"
               clip-path="url(#clipPath2696)">
              <g
                 id="g2698">
                <g
                   id="g2700"
                   clip-path="url(#clipPath2704)">
                  <g
                     id="g2706"
                     transform="matrix(137.30115,0,0,-46.73971,1346.351,140.801)">
                    <g
                       id="g2708">
                      <g
                         id="g2710"
                         clip-path="url(#clipPath2714)">
                        <g
                           id="g2716"
                           transform="matrix(0.00182,0,0,0.00535,-1.7305,-14.7294)">
                          <g
                             id="g2718">
                            <g
                               id="g2720"
                               clip-path="url(#clipPath2724)">
                              <g
                                 id="g2726">
                                <g
                                   id="g2728"
                                   clip-path="url(#clipPath2732)">
                                <path
                                   d="m 1388.3175,2765.853 c 0.368,0 0.4919,-0.2219 1.0252,-1.1145 0.7,-1.1164 0.9046,-1.8318 0.9046,-2.3237 0,-0.4456 -0.2475,-1.4277 -0.5349,-2.1433 -0.5332,-1.3399 -1.8472,-4.1985 -3.2456,-5.939 -0.2889,-0.2683 -0.4524,-0.5366 -0.6982,-0.5366 -0.1239,0 -0.3287,0.2251 -0.3287,0.4453 0,0.2254 0.2443,0.5383 0.3287,0.7603 0.8616,1.6081 1.1918,2.8586 1.1918,3.8872 0,2.5456 -1.725,3.2578 -1.725,3.8821 0,1.5668 1.8488,3.0822 3.0821,3.0822"
                                   style="fill:#231f20;fill-opacity:1;fill-rule:nonzero;stroke:none"
                                   id="path2734"
                                   inkscape:connector-curvature="0" />
                                <path
                                   d="m 1407.8533,2785.261 c 0,8.3757 0,9.9177 -0.1015,11.6821 -0.1014,1.8738 -0.6089,2.8093 -1.7269,3.0864 -0.5555,0.1629 -1.2144,0.22 -1.8232,0.22 -0.5039,0 -0.8084,0.1094 -0.8084,0.5493 0,0.3325 0.4059,0.4419 1.2161,0.4419 1.9264,0 5.1203,-0.1655 6.591,-0.1655 1.2659,0 4.2604,0.1655 6.1834,0.1655 0.6588,0 1.0647,-0.1094 1.0647,-0.4419 0,-0.4399 -0.3045,-0.5493 -0.8136,-0.5493 -0.5039,0 -0.9098,-0.057 -1.5187,-0.167 -1.3691,-0.2754 -1.7734,-1.2119 -1.8714,-3.1394 -0.1049,-1.7644 -0.1049,-3.3064 -0.1049,-11.6821 v -9.6961 c 0,-5.3471 0,-9.6999 0.2029,-12.0683 0.1532,-1.4878 0.5075,-2.4768 2.0279,-2.697 0.7086,-0.1153 1.8267,-0.2237 2.5869,-0.2237 0.5539,0 0.8101,-0.1667 0.8101,-0.4402 0,-0.3852 -0.4076,-0.5556 -0.9648,-0.5556 -3.3421,0 -6.5395,0.1704 -7.9052,0.1704 -1.168,0 -4.3619,-0.1704 -6.3898,-0.1704 -0.6588,0 -1.0147,0.1704 -1.0147,0.5556 0,0.2735 0.2046,0.4402 0.8117,0.4402 0.762,0 1.3675,0.1084 1.8267,0.2237 1.0113,0.2202 1.3175,1.1525 1.4706,2.7522 0.2511,2.3132 0.2511,6.666 0.2511,12.0131"
                                   style="fill:#231f20;fill-opacity:1;fill-rule:nonzero;stroke:none"
                                   id="path2736"
                                   inkscape:connector-curvature="0" />
                                <path
                                   d="m 1428.4847,2765.9751 c 0.1015,-3.6377 0.6606,-4.7368 1.5221,-5.0688 0.7586,-0.2769 1.6187,-0.3304 2.3307,-0.3304 0.5058,0 0.762,-0.2199 0.762,-0.4988 0,-0.3852 -0.4077,-0.497 -1.0148,-0.497 -2.8913,0 -4.9691,0.1704 -5.7793,0.1704 -0.4042,0 -2.5335,-0.1704 -4.8159,-0.1704 -0.6072,0 -1.0149,0.059 -1.0149,0.497 0,0.2789 0.3045,0.4988 0.7105,0.4988 0.6088,0 1.4189,0.053 2.0278,0.2237 1.1644,0.3269 1.3192,1.5962 1.3674,5.6709 l 0.4076,27.7734 c 0,0.9348 0.3062,1.5967 0.7603,1.5967 0.5572,0 1.1644,-0.7158 1.9247,-1.543 0.559,-0.6072 7.2514,-8.0439 13.741,-14.9316 3.0375,-3.2517 8.9733,-9.8638 9.6286,-10.5257 h 0.2047 l -0.4575,20.8291 c -0.048,2.8662 -0.4558,3.6919 -1.5188,4.1319 -0.6623,0.2756 -1.7251,0.2756 -2.334,0.2756 -0.5556,0 -0.7069,0.2207 -0.7069,0.4961 0,0.3857 0.4541,0.4402 1.1128,0.4419 2.3305,0 4.718,-0.1118 5.6777,-0.1118 0.5092,0 2.1809,0.1118 4.3619,0.1101 0.6072,0 1.0148,-0.054 1.0148,-0.4402 0,-0.2754 -0.2546,-0.4961 -0.7619,-0.4961 -0.4576,0 -0.8136,0 -1.3709,-0.1655 -1.2161,-0.3841 -1.572,-1.2129 -1.6219,-3.8567 l -0.5057,-29.532 c 0,-1.0491 -0.3543,-1.4878 -0.7104,-1.4878 -0.7584,0 -1.3656,0.4971 -1.8231,0.989 -2.7917,2.8123 -8.3661,8.5982 -13.0291,13.501 -4.8677,5.0703 -9.5821,10.7451 -10.4438,11.5706 h -0.1531"
                                   style="fill:#231f20;fill-opacity:1;fill-rule:nonzero;stroke:none"
                                   id="path2738"
                                   inkscape:connector-curvature="0" />
                                <path
                                   d="m 1465.4939,2764.0452 c -4.4135,4.0232 -5.5779,9.3117 -5.5779,13.8327 0,3.1956 0.9632,8.7058 5.2236,12.8369 3.2422,3.0865 7.501,4.9602 14.1402,4.9602 2.7898,0 4.4599,-0.2202 6.4912,-0.4963 1.6719,-0.2756 3.1425,-0.6057 4.46,-0.7717 0.5056,-0.054 0.6569,-0.2739 0.6569,-0.5513 0,-0.3852 -0.098,-0.9363 -0.2011,-2.5881 -0.1,-1.5437 -0.1,-4.1345 -0.1514,-5.0703 -0.052,-0.6626 -0.2029,-1.158 -0.6106,-1.158 -0.3525,0 -0.4558,0.3872 -0.4558,0.9917 -0.05,1.4883 -0.6089,3.1419 -1.7234,4.3547 -1.5188,1.5975 -4.5116,2.7554 -8.6206,2.7554 -3.8993,0 -6.3831,-0.7717 -8.4109,-2.6455 -3.2954,-3.0864 -4.1057,-7.603 -4.1057,-12.1785 0,-11.1294 7.907,-16.4184 13.8874,-16.4184 3.9543,0 6.1353,0.3303 7.9102,2.4785 0.7586,0.9358 1.3674,2.26 1.5188,3.1409 0.1033,0.7153 0.2047,0.9372 0.5591,0.9372 0.3061,0 0.509,-0.4419 0.509,-0.8254 0,-0.5557 -0.509,-4.6304 -0.9648,-6.2249 -0.203,-0.8291 -0.406,-1.049 -1.168,-1.3811 -1.7733,-0.7705 -5.1703,-1.0493 -8.0598,-1.0493 -6.082,0 -11.254,1.3814 -15.3064,5.0706"
                                   style="fill:#231f20;fill-opacity:1;fill-rule:nonzero;stroke:none"
                                   id="path2740"
                                   inkscape:connector-curvature="0" />
                                <path
                                   d="m 1493.4233,2763.113 c 0,1.376 0.9117,3.3575 3.0909,3.3575 1.7233,0 3.0942,-1.2642 3.0942,-3.1976 0,-1.9262 -1.2161,-3.5224 -3.1442,-3.5224 -2.1292,0 -3.0409,1.8144 -3.0409,3.3625"
                                   style="fill:#231f20;fill-opacity:1;fill-rule:nonzero;stroke:none"
                                   id="path2742"
                                   inkscape:connector-curvature="0" />
                                <path
                                   d="m 1441.1198,2813.8267 c 7.1776,0 13.9011,2.7915 18.9647,7.854 5.0688,5.0676 7.8656,11.8007 7.8656,18.9655 v 72.9461 c 0,7.1682 -2.7968,13.9011 -7.8656,18.9656 -5.0636,5.0683 -11.7871,7.8574 -18.9647,7.8574 h -433.3949 c -14.7889,0 -26.8171,-12.0342 -26.8171,-26.823 v -72.9461 c 0,-7.1648 2.7857,-13.8979 7.8517,-18.9655 5.0659,-5.0625 11.804,-7.854 18.9654,-7.854 h 433.3949"
                                   style="fill:#231f20;fill-opacity:1;fill-rule:nonzero;stroke:none"
                                   id="path2744"
                                   inkscape:connector-curvature="0" />
                                <path
                                   d="m 1441.1198,2813.8267 c 7.1776,0 13.9011,2.7915 18.9647,7.854 5.0688,5.0676 7.8656,11.8007 7.8656,18.9655 v 72.9461 c 0,7.1682 -2.7968,13.9011 -7.8656,18.9656 -5.0636,5.0683 -11.7871,7.8574 -18.9647,7.8574 h -433.3949 c -14.7889,0 -26.8171,-12.0342 -26.8171,-26.823 v -72.9461 c 0,-7.1648 2.7857,-13.8979 7.8517,-18.9655 5.0659,-5.0625 11.804,-7.854 18.9654,-7.854 z"
                                   style="fill:none;stroke:#231f20;stroke-width:0.67919999;stroke-linecap:butt;stroke-linejoin:miter;stroke-miterlimit:4;stroke-dasharray:none;stroke-opacity:1"
                                   id="path2746"
                                   inkscape:connector-curvature="0" />
                                <path
                                   d="m 1007.7249,2815.9717 c -6.5928,0 -12.7858,2.5671 -17.4462,7.2258 -4.6611,4.6629 -7.2276,10.8584 -7.2276,17.4487 v 72.9461 c 0,6.5928 2.5665,12.7893 7.2276,17.4463 4.6604,4.6611 10.8534,7.2309 17.4462,7.2309 h 433.3949 c 6.6014,0 12.7951,-2.5698 17.4545,-7.2309 4.6579,-4.657 7.224,-10.8535 7.224,-17.4463 v -72.9461 c 0,-13.6074 -11.0664,-24.6745 -24.6785,-24.6745 h -433.3949"
                                   style="fill:#ffffff;fill-opacity:1;fill-rule:nonzero;stroke:none"
                                   id="path2748"
                                   inkscape:connector-curvature="0" />
                                <path
                                   d="m 1441.1318,2823.5688 c 9.4738,0 17.1623,7.6902 17.1623,17.1707 v 72.9436 c 0,9.4817 -7.6885,17.1648 -17.1623,17.1648 h -433.4069 c -9.4769,0 -17.1639,-7.6831 -17.1639,-17.1648 v -72.9436 c 0,-9.4805 7.687,-17.1707 17.1639,-17.1707 h 433.4069"
                                   style="fill:#e51636;fill-opacity:1;fill-rule:nonzero;stroke:none"
                                   id="path2750"
                                   inkscape:connector-curvature="0" />
                                <path
                                   d="m 1441.1318,2823.5688 c 9.4738,0 17.1623,7.6902 17.1623,17.1707 v 72.9436 c 0,9.4817 -7.6885,17.1648 -17.1623,17.1648 h -433.4069 c -9.4769,0 -17.1639,-7.6831 -17.1639,-17.1648 v -72.9436 c 0,-9.4805 7.687,-17.1707 17.1639,-17.1707 h 433.4069"
                                   style="fill:none;stroke:#e51636;stroke-width:1.40110004;stroke-linecap:butt;stroke-linejoin:miter;stroke-miterlimit:4;stroke-dasharray:none;stroke-opacity:1"
                                   id="path2752"
                                   inkscape:connector-curvature="0" />
                                <path
                                   d="m 1441.1318,2823.5688 c 9.4738,0 17.1623,7.6902 17.1623,17.1707 v 72.9436 c 0,9.4817 -7.6885,17.1648 -17.1623,17.1648 h -433.4069 c -9.4769,0 -17.1639,-7.6831 -17.1639,-17.1648 v -72.9436 c 0,-9.4805 7.687,-17.1707 17.1639,-17.1707 z"
                                   style="fill:none;stroke:#e51636;stroke-width:0.67919999;stroke-linecap:butt;stroke-linejoin:miter;stroke-miterlimit:4;stroke-dasharray:none;stroke-opacity:1"
                                   id="path2754"
                                   inkscape:connector-curvature="0" />
                                <path
                                   d="m 1074.8879,2883.4294 c 0.085,-1.1162 0.085,-2.0576 0.085,-3.3442 0,-21.2725 -16.2973,-34.0539 -33.8827,-34.0539 -19.2081,0 -33.7078,15.0136 -33.7078,33.2819 0,18.9546 15.2682,32.6785 33.9683,32.6785 15.1802,0 28.2178,-10.2051 31.7358,-22.47 h -18.1842 c -2.4876,4.4544 -7.1202,8.2312 -13.9792,8.2312 -7.9801,0 -17.3285,-5.9167 -17.3285,-18.4397 0,-13.2929 9.4365,-19.04 17.4117,-19.04 8.0642,0 13.4669,4.0281 15.1818,10.2075 h -18.9545 v 12.9487 h 37.6544"
                                   style="fill:#ffffff;fill-opacity:1;fill-rule:nonzero;stroke:none"
                                   id="path2756"
                                   inkscape:connector-curvature="0" />
                                <path
                                   d="m 1106.2141,2859.1572 c 6.177,0 11.4102,5.0625 11.4102,12.0078 0,6.9439 -5.2332,12.0074 -11.4102,12.0074 -6.1761,0 -11.4084,-5.0635 -11.4084,-12.0074 0,-6.9453 5.2323,-12.0078 11.4084,-12.0078 m 0,37.3101 c 17.325,0 25.648,-13.6399 25.648,-25.3023 0,-11.6626 -8.323,-25.3034 -25.648,-25.3034 -17.3259,0 -25.6455,13.6408 -25.6455,25.3034 0,11.6624 8.3196,25.3023 25.6455,25.3023"
                                   style="fill:#ffffff;fill-opacity:1;fill-rule:nonzero;stroke:none"
                                   id="path2758"
                                   inkscape:connector-curvature="0" />
                                <path
                                   d="m 1163.3535,2859.1572 c 6.1731,0 11.4071,5.0625 11.4071,12.0078 0,6.9439 -5.234,12.0074 -11.4071,12.0074 -6.1782,0 -11.4087,-5.0635 -11.4087,-12.0074 0,-6.9453 5.2305,-12.0078 11.4087,-12.0078 m 0,37.3101 c 17.3256,0 25.6487,-13.6399 25.6487,-25.3023 0,-11.6626 -8.3231,-25.3034 -25.6487,-25.3034 -17.3273,0 -25.6468,13.6408 -25.6468,25.3034 0,11.6624 8.3195,25.3023 25.6468,25.3023"
                                   style="fill:#ffffff;fill-opacity:1;fill-rule:nonzero;stroke:none"
                                   id="path2760"
                                   inkscape:connector-curvature="0" />
                                <path
                                   d="m 1221.0062,2859.0681 c 8.9182,0 12.1742,7.2915 12.1742,12.2666 0,5.7456 -4.1142,11.9258 -12.0056,11.9258 -8.2336,0 -12.0915,-6.4373 -12.0915,-11.9258 0,-7.3721 5.2321,-12.2666 11.9229,-12.2666 m 25.6417,-11.7502 h -13.5551 v 5.1457 h -0.1687 c -1.204,-1.9702 -4.6302,-6.6885 -14.2364,-6.6885 -14.4067,0 -23.8479,11.1487 -23.8479,25.4725 0,16.1281 11.5,25.301 23.5916,25.301 8.4022,0 12.4355,-4.1153 13.9767,-5.6587 v 19.9058 h 14.2398"
                                   style="fill:#ffffff;fill-opacity:1;fill-rule:nonzero;stroke:none"
                                   id="path2762"
                                   inkscape:connector-curvature="0" />
                                <path
                                   d="m 1255.2634,2894.9236 h 13.2888 v -5.0635 h 0.1738 c 1.118,1.9761 4.2037,6.6885 13.127,6.6885 4.2036,0 9.9433,-1.4556 13.7204,-8.4883 2.9188,4.6301 7.8054,8.4883 15.0965,8.4883 3.3436,0 8.6687,-0.7659 12.5215,-4.7996 4.4669,-4.7175 5.1497,-7.893 5.1497,-18.4397 v -25.9914 h -14.2398 v 25.302 c 0,3.864 0,10.5525 -7.2911,10.5525 -7.8914,0 -7.8914,-7.2024 -7.8914,-9.8631 v -25.9914 h -14.2347 v 25.9033 c 0,2.5732 0,9.9512 -7.1243,9.9512 -8.0615,0 -8.0615,-7.7232 -8.0615,-10.5525 v -25.302 h -14.2349 v 47.6057"
                                   style="fill:#ffffff;fill-opacity:1;fill-rule:nonzero;stroke:none"
                                   id="path2764"
                                   inkscape:connector-curvature="0" />
                                <path
                                   d="m 1360.5481,2858.9814 c 8.9233,0 11.9282,7.5528 11.9282,12.1836 0,5.7464 -3.9543,12.0955 -12.0107,12.0955 -8.1442,0 -11.751,-6.864 -11.751,-12.2708 0,-4.4555 3.2576,-12.0083 11.8335,-12.0083 m 26.1681,-11.6635 h -14.2399 v 5.1457 h -0.172 c -2.4079,-4.6318 -8.3265,-6.7768 -13.8907,-6.7768 -15.1067,0 -23.9356,11.8383 -23.9356,25.4782 0,15.6087 11.2317,25.3836 23.9356,25.3836 7.7986,0 12.1725,-3.771 13.8907,-6.6885 h 0.172 v 5.0635 h 14.2399"
                                   style="fill:#ffffff;fill-opacity:1;fill-rule:nonzero;stroke:none"
                                   id="path2766"
                                   inkscape:connector-curvature="0" />
                                <path
                                   d="m 1395.3918,2894.9236 h 13.2923 v -5.0635 h 0.1771 c 1.4655,2.3154 4.4669,6.6885 12.9551,6.6885 4.5477,0 9.6045,-1.8828 12.181,-4.1153 2.5628,-2.228 5.4851,-6.0048 5.4851,-15.353 v -29.7624 h -14.2417 v 25.9914 c 0,3.3443 0,9.8631 -7.4579,9.8631 -8.1441,0 -8.1441,-7.0337 -8.1441,-9.9512 v -25.9033 h -14.2469 v 47.6057"
                                   style="fill:#ffffff;fill-opacity:1;fill-rule:nonzero;stroke:none"
                                   id="path2768"
                                   inkscape:connector-curvature="0" />
                                <path
                                   d="m 1433.2181,2902.7224 c 0,-3.0537 2.4167,-5.5876 5.5058,-5.5876 3.0444,0 5.5212,2.4792 5.5212,5.5876 0,3.0217 -2.3857,5.5881 -5.5212,5.5881 -3.1304,0 -5.5058,-2.5664 -5.5058,-5.5881 m 11.9643,0 c 0,-3.5737 -2.9187,-6.4536 -6.4379,-6.4536 -3.6119,0 -6.4586,2.9236 -6.4586,6.4536 0,3.5122 2.8329,6.4507 6.4586,6.4507 3.5741,0 6.4379,-2.926 6.4379,-6.4507 z m -8.2748,0.2224 h 1.8558 c 0.4903,0 1.9917,0 1.9917,1.3438 0,1.2011 -1.333,1.2011 -1.8197,1.2011 h -2.0278 z m 2.1826,3.4063 c 0.4558,0 2.5938,0 2.5938,-2.0078 0,-0.813 -0.3664,-1.5545 -1.3692,-1.7898 v -0.03 c 1.0131,-0.2885 1.2006,-0.8984 1.2384,-1.8423 0.065,-1.249 0.065,-1.3984 0.2254,-1.7075 h -0.9236 c -0.1343,0.2183 -0.1824,0.44 -0.2168,1.3655 0,1.1709 -0.2012,1.7554 -1.8937,1.7554 h -1.8369 v -3.1209 h -0.922 v 7.377"
                                   style="fill:#ffffff;fill-opacity:1;fill-rule:nonzero;stroke:none"
                                   id="path2770"
                                   inkscape:connector-curvature="0" />
                                <path
                                   d="m 992.3893,2762.9736 c 0,-1.4275 -0.0454,-1.5324 -0.5963,-1.9057 -2.9831,-1.7974 -7.4813,-2.3787 -11.0591,-2.3787 -11.2438,0 -21.201,6.1353 -21.201,20.7273 0,8.459 3.8079,14.3816 7.9852,17.2891 4.4041,3.0671 8.4891,3.4365 12.3424,3.4365 3.1679,0 7.2058,-0.6331 8.1229,-0.845 0.9642,-0.2114 2.57,-0.529 3.6249,-0.5827 0.5509,-0.052 0.6433,-0.2637 0.6433,-0.6333 0,-0.5828 -0.3208,-2.0625 -0.3208,-8.6722 0,-0.8449 -0.1378,-1.1103 -0.5057,-1.1103 -0.3207,0 -0.4114,0.2654 -0.4585,0.6887 -0.1378,1.2161 -0.3662,2.9075 -1.5604,4.3875 -1.3757,1.6914 -5.0476,4.1235 -10.2344,4.1235 -2.5229,0 -5.8722,-0.21 -9.0838,-3.2771 -2.5699,-2.4861 -4.2226,-6.45 -4.2226,-12.9536 0,-11.3675 6.2854,-19.8797 15.9704,-19.8797 1.1926,0 2.7984,0 3.9002,0.5813 0.6887,0.3699 0.8702,1.0579 0.8702,1.9539 v 4.9727 c 0,2.6438 0,4.6525 -0.0437,6.2375 -0.0471,1.7988 -0.4603,2.6438 -1.9754,3.0149 -0.3662,0.1057 -1.1455,0.158 -1.7888,0.158 -0.4132,0 -0.6887,0.1057 -0.6887,0.4233 0,0.4233 0.3208,0.529 0.9641,0.529 2.3868,0 5.2776,-0.1594 6.6533,-0.1594 1.4243,0 3.8566,0.1594 5.37,0.1594 0.5963,0 0.9188,-0.1057 0.9188,-0.529 0,-0.3176 -0.2756,-0.4233 -0.598,-0.4233 -0.3662,0 -0.6887,-0.052 -1.2396,-0.158 -1.238,-0.2654 -1.6965,-1.1638 -1.7436,-3.0149 -0.0453,-1.585 -0.0453,-3.7014 -0.0453,-6.3452"
                                   style="fill:#231f20;fill-opacity:1;fill-rule:nonzero;stroke:none"
                                   id="path2772"
                                   inkscape:connector-curvature="0" />
                                <path
                                   d="m 1024.557,2775.6101 c 0,9.939 -5.1852,16.0732 -11.7007,16.0732 -4.4983,0 -9.7758,-2.7497 -9.7758,-13.8525 0,-9.2551 4.5888,-16.5513 12.2079,-16.5513 2.8454,0 9.2686,1.5359 9.2686,14.3306 z m -27.4411,0.8452 c 0,7.6677 4.6813,17.6065 16.9329,17.6065 10.1874,0 16.5215,-6.5022 16.5215,-16.812 0,-10.3133 -6.5173,-18.4024 -16.9347,-18.4024 -11.7477,0 -16.5197,9.6253 -16.5197,17.6079"
                                   style="fill:#231f20;fill-opacity:1;fill-rule:nonzero;stroke:none"
                                   id="path2774"
                                   inkscape:connector-curvature="0" />
                                <path
                                   d="m 1059.7532,2775.6101 c 0,9.939 -5.1853,16.0732 -11.7007,16.0732 -4.4983,0 -9.7758,-2.7497 -9.7758,-13.8525 0,-9.2551 4.5888,-16.5513 12.2079,-16.5513 2.8454,0 9.2686,1.5359 9.2686,14.3306 z m -27.4411,0.8452 c 0,7.6677 4.6813,17.6065 16.9329,17.6065 10.1874,0 16.5215,-6.5022 16.5215,-16.812 0,-10.3133 -6.5174,-18.4024 -16.9347,-18.4024 -11.7477,0 -16.5197,9.6253 -16.5197,17.6079"
                                   style="fill:#231f20;fill-opacity:1;fill-rule:nonzero;stroke:none"
                                   id="path2776"
                                   inkscape:connector-curvature="0" />
                                <path
                                   d="m 1075.9521,2775.4507 c 0,-4.7576 0.047,-8.1941 0.092,-9.0955 0.045,-1.1076 0.1379,-2.6936 0.4587,-3.1699 0.5054,-0.8462 2.1113,-1.7974 5.2774,-1.7974 3.6719,0 6.3795,0.7378 8.8118,3.0667 2.6152,2.4819 3.4399,6.5037 3.4399,11.1555 0,5.7095 -1.9719,9.4114 -3.7624,11.2087 -3.7156,3.8062 -8.1231,4.2833 -11.2876,4.2833 -0.8264,0 -2.1566,-0.1058 -2.4791,-0.3174 -0.3663,-0.1597 -0.5041,-0.3714 -0.5041,-0.899 -0.047,-1.5334 -0.047,-5.2353 -0.047,-8.7778 v -5.6572 z m -5.4154,4.9702 c 0,6.821 0,8.0894 -0.044,9.5171 -0.094,1.5334 -0.46,2.009 -1.7451,2.4321 -0.3208,0.106 -1.0095,0.1597 -1.6058,0.1597 -0.4131,0 -0.6887,0.1579 -0.6887,0.4753 0,0.3174 0.3208,0.4234 0.9188,0.4234 2.1096,0 4.6797,-0.106 5.8269,-0.106 1.2396,0 4.1302,0.106 6.5625,0.106 5.0475,0 11.8384,0 16.2458,-5.1299 2.019,-2.3262 3.808,-6.0806 3.808,-11.4202 0,-5.6579 -2.1114,-9.9419 -4.4057,-12.5322 -1.8343,-2.1121 -6.1042,-5.2871 -13.5384,-5.2871 -1.468,0 -3.2116,0.1616 -4.8173,0.2666 -1.6059,0.1565 -3.0739,0.2649 -4.085,0.2649 -0.4569,0 -1.3303,-0.053 -2.2946,-0.053 -0.9625,-0.055 -1.9719,-0.105 -2.7982,-0.105 -0.504,0 -0.7795,0.1585 -0.7795,0.4732 0,0.2131 0.1378,0.478 0.6417,0.478 0.5963,0 1.0549,0.053 1.4226,0.1582 0.8265,0.2117 1.0567,1.0579 1.1945,2.3772 0.1812,1.9058 0.1812,5.4456 0.1812,9.5715"
                                   style="fill:#231f20;fill-opacity:1;fill-rule:nonzero;stroke:none"
                                   id="path2778"
                                   inkscape:connector-curvature="0" />
                                <path
                                   d="m 1107.2043,2793.2688 c 0.091,0.7407 0.4585,1.1641 0.7793,1.1641 0.4133,0 0.6888,-0.2117 1.2397,-1.4278 l 10.8307,-25.0639 10.8294,25.3813 c 0.32,0.7393 0.688,1.1104 1.0561,1.1104 0.3182,0 0.7791,-0.4771 0.9167,-1.4278 l 3.6722,-27.7575 c 0.3664,-2.8018 0.7328,-4.0179 1.9711,-4.441 1.1474,-0.3698 1.7905,-0.4233 2.2946,-0.4233 0.3663,0 0.6416,-0.1582 0.6416,-0.4231 0,-0.3696 -0.4558,-0.5281 -1.0545,-0.5281 -1.0096,0 -6.7458,0.2083 -8.3506,0.3167 -0.9649,0.053 -1.1937,0.2649 -1.1937,0.5263 0,0.2115 0.1841,0.3731 0.4592,0.4781 0.2306,0.1032 0.32,0.6347 0.1824,1.904 l -2.2463,19.4551 h -0.1376 l -8.6744,-20.0898 c -0.9171,-2.1172 -1.1473,-2.5403 -1.6059,-2.5403 -0.5056,0 -0.9642,0.9011 -1.6058,2.2754 -0.9641,2.0622 -4.1755,8.9355 -4.6359,10.2053 -0.3208,0.8433 -2.7076,6.5012 -4.0381,9.6221 h -0.1376 l -1.9281,-17.5535 c -0.091,-0.793 -0.1379,-1.3743 -0.1379,-2.1172 0,-0.8464 0.5509,-1.1611 1.2397,-1.3193 0.6887,-0.1582 1.0548,-0.2117 1.4226,-0.2117 0.3679,0 0.6433,-0.2114 0.6433,-0.4231 0,-0.4231 -0.3678,-0.5281 -0.9641,-0.5281 -1.6982,0 -3.5341,0.1585 -4.2681,0.1585 -0.781,0 -2.7078,-0.1585 -3.9926,-0.1585 -0.4133,0 -0.7341,0.105 -0.7341,0.5281 0,0.2117 0.2301,0.4231 0.6433,0.4231 0.3209,0 0.5963,0 1.2396,0.1033 1.1003,0.1616 1.4682,1.9592 1.6512,3.4365"
                                   style="fill:#231f20;fill-opacity:1;fill-rule:nonzero;stroke:none"
                                   id="path2780"
                                   inkscape:connector-curvature="0" />
                                <path
                                   d="m 1156.1227,2773.2295 c 0.1824,0 0.2287,0.1074 0.1824,0.2654 l -3.8099,11.4209 c -0.043,0.1579 -0.091,0.4233 -0.1806,0.4233 -0.1376,0 -0.1857,-0.2654 -0.2305,-0.4233 l -3.9027,-11.3675 c -0.089,-0.2114 0,-0.3188 0.1377,-0.3188 z m -8.6276,-2.4827 c -0.2305,0 -0.2751,-0.054 -0.368,-0.3191 l -2.1569,-6.0263 c -0.4128,-1.1128 -0.5968,-2.2205 -0.5968,-2.7486 0,-0.7964 0.3681,-1.2695 1.6065,-1.2695 h 0.5968 c 0.5057,0 0.5969,-0.2114 0.5969,-0.478 0,-0.3682 -0.2288,-0.4732 -0.6433,-0.4732 -1.3296,0 -3.213,0.1585 -4.4961,0.1585 -0.4129,0 -2.5697,-0.1585 -4.6819,-0.1585 -0.5056,0 -0.7327,0.105 -0.7327,0.4732 0,0.2666 0.1376,0.478 0.4575,0.478 0.3681,0 0.8273,0.053 1.1954,0.053 1.8336,0.3164 2.5216,1.6889 3.3488,3.9646 l 10.5557,28.2863 c 0.4558,1.2681 0.7792,1.7972 1.192,1.7972 0.5968,0 0.7792,-0.4231 1.1919,-1.4278 0.965,-2.4841 7.7108,-20.8825 10.2804,-27.7063 1.5601,-4.0713 2.7074,-4.6526 3.4418,-4.8093 0.5968,-0.1047 1.056,-0.1582 1.5135,-0.1582 0.3682,0 0.5504,-0.1582 0.5504,-0.478 0,-0.3682 -0.2287,-0.4732 -1.744,-0.4732 -1.4225,0 -4.3602,0 -7.7538,0.105 -0.7343,0.053 -1.1954,0.053 -1.1954,0.3682 0,0.2666 0.095,0.4248 0.5057,0.478 0.2752,0.053 0.5505,0.4731 0.3681,1.0046 l -3.1201,9.0398 c -0.091,0.2654 -0.2288,0.3191 -0.4145,0.3191"
                                   style="fill:#231f20;fill-opacity:1;fill-rule:nonzero;stroke:none"
                                   id="path2782"
                                   inkscape:connector-curvature="0" />
                                <path
                                   d="m 1174.5232,2765.564 c 0.089,-3.4915 0.5952,-4.5459 1.3778,-4.8658 0.6863,-0.2614 1.4672,-0.3149 2.1086,-0.3149 0.4611,0 0.6882,-0.2114 0.6882,-0.478 0,-0.3682 -0.3648,-0.4732 -0.9169,-0.4732 -2.6161,0 -4.4978,0.1585 -5.2322,0.1585 -0.368,0 -2.2945,-0.1585 -4.3585,-0.1585 -0.5504,0 -0.9185,0.05 -0.9185,0.4732 0,0.2666 0.2752,0.478 0.6433,0.478 0.5505,0 1.2831,0.053 1.8335,0.2117 1.0579,0.3147 1.1955,1.5307 1.2401,5.4455 l 0.3664,26.6472 c 0,0.8985 0.2752,1.5335 0.688,1.5335 0.5057,0 1.0578,-0.687 1.7441,-1.4815 0.5056,-0.5813 6.5635,-7.7182 12.4356,-14.3278 2.7554,-3.1189 8.1235,-9.4624 8.7204,-10.0977 h 0.1841 l -0.4128,19.9844 c -0.046,2.7497 -0.4129,3.5425 -1.3777,3.9658 -0.5952,0.2654 -1.5601,0.2654 -2.1105,0.2654 -0.504,0 -0.6416,0.2099 -0.6416,0.4753 0,0.3697 0.4128,0.4234 1.0096,0.4234 2.1105,0 4.2674,-0.106 5.1394,-0.106 0.4576,0 1.9728,0.106 3.9457,0.106 0.5504,0 0.9185,-0.054 0.9185,-0.4234 0,-0.2654 -0.2305,-0.4753 -0.688,-0.4753 -0.4146,0 -0.7345,0 -1.2401,-0.1597 -1.1009,-0.3696 -1.4225,-1.1623 -1.4689,-3.7002 l -0.4575,-28.3398 c 0,-1.0044 -0.3217,-1.4292 -0.6433,-1.4292 -0.688,0 -1.2384,0.478 -1.6513,0.9509 -2.5249,2.6987 -7.5731,8.251 -11.7956,12.9544 -4.4033,4.8652 -8.6724,10.3125 -9.4531,11.1052 h -0.1377"
                                   style="fill:#231f20;fill-opacity:1;fill-rule:nonzero;stroke:none"
                                   id="path2784"
                                   inkscape:connector-curvature="0" />
                                <path
                                   d="m 1247.6233,2762.9736 c 0,-1.4275 -0.046,-1.5324 -0.5969,-1.9057 -2.9825,-1.7974 -7.4803,-2.3787 -11.0596,-2.3787 -11.2437,0 -21.2007,6.1353 -21.2007,20.7273 0,8.459 3.8081,14.3816 7.9843,17.2891 4.4049,3.0671 8.4898,3.4365 12.346,3.4365 3.1648,0 7.2034,-0.6331 8.1202,-0.845 0.9649,-0.2114 2.5697,-0.529 3.6275,-0.5827 0.5487,-0.052 0.6415,-0.2637 0.6415,-0.6333 0,-0.5828 -0.3215,-2.0625 -0.3215,-8.6722 0,-0.8449 -0.1377,-1.1103 -0.5058,-1.1103 -0.3199,0 -0.4127,0.2654 -0.4575,0.6887 -0.1376,1.2161 -0.368,2.9075 -1.5618,4.3875 -1.3742,1.6914 -5.0465,4.1235 -10.2323,4.1235 -2.5249,0 -5.8737,-0.21 -9.0866,-3.2771 -2.5697,-2.4861 -4.221,-6.45 -4.221,-12.9536 0,-11.3675 6.2866,-19.8797 15.9685,-19.8797 1.1936,0 2.8002,0 3.9027,0.5813 0.6862,0.3699 0.8703,1.0579 0.8703,1.9539 v 4.9727 c 0,2.6438 0,4.6525 -0.046,6.2375 -0.045,1.7988 -0.4592,2.6438 -1.9712,3.0149 -0.368,0.1057 -1.1489,0.158 -1.7905,0.158 -0.4145,0 -0.6897,0.1057 -0.6897,0.4233 0,0.4233 0.3216,0.529 0.9649,0.529 2.3857,0 5.277,-0.1594 6.653,-0.1594 1.4224,0 3.8545,0.1594 5.3699,0.1594 0.5968,0 0.9167,-0.1057 0.9167,-0.529 0,-0.3176 -0.2753,-0.4233 -0.5951,-0.4233 -0.3663,0 -0.6898,-0.052 -1.2401,-0.158 -1.2385,-0.2654 -1.6977,-1.1638 -1.7441,-3.0149 -0.045,-1.585 -0.045,-3.7014 -0.045,-6.3452"
                                   style="fill:#231f20;fill-opacity:1;fill-rule:nonzero;stroke:none"
                                   id="path2786"
                                   inkscape:connector-curvature="0" />
                                <path
                                   d="m 1261.2543,2772.4902 c 0,-5.7651 0,-8.6169 0.8702,-9.4631 0.6898,-0.688 2.2498,-0.9546 5.3682,-0.9546 2.1585,0 3.7186,0.053 4.7282,1.271 0.504,0.5796 0.9185,1.8508 1.0097,2.697 0.046,0.4231 0.1376,0.6846 0.4592,0.6846 0.2753,0 0.3664,-0.4731 0.3664,-1.0046 0,-0.5262 -0.2752,-3.8562 -0.5968,-5.179 -0.2752,-1.0044 -0.4576,-1.2158 -2.5698,-1.2158 -2.8913,0 -5.2304,0.053 -7.2497,0.1565 -2.021,0.055 -3.7169,0.1084 -5.3699,0.1084 -0.4575,0 -1.3296,-0.053 -2.2944,-0.053 -0.9631,-0.055 -1.9729,-0.105 -2.7985,-0.105 -0.5057,0 -0.7809,0.1585 -0.7809,0.4732 0,0.2131 0.1376,0.478 0.6434,0.478 0.5968,0 1.0543,0.053 1.4223,0.1582 0.8257,0.2117 1.0562,1.0579 1.1937,2.3772 0.1824,1.9058 0.1824,5.4456 0.1824,9.5715 v 7.9307 c 0,6.821 0,8.0894 -0.045,9.5171 -0.093,1.5334 -0.4592,2.009 -1.744,2.4321 -0.3217,0.106 -0.8256,0.1597 -1.3313,0.1597 -0.4592,0 -0.688,0.1579 -0.688,0.4753 0,0.3174 0.2734,0.4234 0.8721,0.4234 1.8816,0 4.4513,-0.106 5.5521,-0.106 0.9631,0 4.2673,0.106 5.8274,0.106 0.5968,0 0.8721,-0.106 0.8721,-0.4234 0,-0.3174 -0.2289,-0.4753 -0.7345,-0.4753 -0.4576,0 -1.1009,-0.054 -1.5601,-0.1597 -1.1008,-0.2117 -1.4225,-0.8464 -1.5135,-2.4321 -0.091,-1.4277 -0.091,-2.6961 -0.091,-9.5171"
                                   style="fill:#231f20;fill-opacity:1;fill-rule:nonzero;stroke:none"
                                   id="path2788"
                                   inkscape:connector-curvature="0" />
                                <path
                                   d="m 1300.5322,2775.6101 c 0,9.939 -5.1841,16.0732 -11.7011,16.0732 -4.4961,0 -9.7748,-2.7497 -9.7748,-13.8525 0,-9.2551 4.589,-16.5513 12.2068,-16.5513 2.8448,0 9.2691,1.5359 9.2691,14.3306 z m -27.4426,0.8452 c 0,7.6677 4.6819,17.6065 16.9351,17.6065 10.1876,0 16.5206,-6.5022 16.5206,-16.812 0,-10.3133 -6.5171,-18.4024 -16.9334,-18.4024 -11.7476,0 -16.5223,9.6253 -16.5223,17.6079"
                                   style="fill:#231f20;fill-opacity:1;fill-rule:nonzero;stroke:none"
                                   id="path2790"
                                   inkscape:connector-curvature="0" />
                                <path
                                   d="m 1316.5505,2766.4636 c 0,-2.9636 0.1376,-3.8596 1.4225,-4.4411 1.0543,-0.4764 1.9728,-0.5315 2.8913,-0.5315 2.1569,0 4.9553,1.3779 4.9553,6.3469 0,2.0622 -0.7792,5.603 -3.8081,7.9841 -0.8273,0.6868 -1.9281,1.1624 -3.4898,1.1624 h -1.7424 c -0.1376,0 -0.2288,-0.052 -0.2288,-0.3177 z m 0,13.2166 c 0,-0.3697 0.1376,-0.4217 0.2752,-0.4754 0.3664,-0.1057 0.9632,-0.1579 1.8817,-0.1579 1.3296,0 2.4768,0.1579 3.1665,0.7927 1.0543,0.9509 1.8353,2.5903 1.8353,4.7585 0,3.0137 -1.56,6.7676 -5.0482,6.7676 -0.5504,0 -1.3313,0 -1.7441,-0.1057 -0.2752,-0.052 -0.3664,-0.2637 -0.3664,-0.7407 z m -5.2321,0.7407 c 0,6.821 0,8.0894 -0.045,9.5171 -0.093,1.5334 -0.4593,2.009 -1.7441,2.4321 -0.3233,0.106 -1.0096,0.1597 -1.6082,0.1597 -0.411,0 -0.6863,0.1579 -0.6863,0.4753 0,0.3174 0.3199,0.4234 0.9167,0.4234 2.1122,0 4.6819,-0.106 5.4611,-0.106 2.0193,0 4.6819,0.106 6.0561,0.106 7.2979,0 8.5828,-4.3372 8.5828,-6.7156 0,-3.4902 -2.248,-6.1863 -4.5425,-7.8777 3.3041,-1.2161 7.4339,-4.4402 7.4339,-9.7278 0,-4.811 -3.3059,-9.7817 -10.7381,-9.7817 -0.4592,0 -1.8352,0.053 -3.2129,0.1565 -1.3759,0.055 -2.7984,0.1084 -3.4417,0.1084 -0.4593,0 -1.3295,-0.053 -2.2945,-0.053 -0.9632,-0.055 -1.9729,-0.105 -2.7984,-0.105 -0.5058,0 -0.7809,0.1585 -0.7809,0.4732 0,0.2131 0.1376,0.478 0.6433,0.478 0.5968,0 1.0543,0.053 1.4224,0.1582 0.8256,0.2117 1.0544,1.0579 1.1937,2.3772 0.1824,1.9058 0.1824,5.4456 0.1824,9.5715"
                                   style="fill:#231f20;fill-opacity:1;fill-rule:nonzero;stroke:none"
                                   id="path2792"
                                   inkscape:connector-curvature="0" />
                                <path
                                   d="m 1348.5339,2773.2295 c 0.1824,0 0.2288,0.1074 0.1824,0.2654 l -3.8098,11.4209 c -0.045,0.1579 -0.09,0.4233 -0.1824,0.4233 -0.1376,0 -0.1841,-0.2654 -0.2304,-0.4233 l -3.9009,-11.3675 c -0.091,-0.2114 0,-0.3188 0.1393,-0.3188 z m -8.6292,-2.4827 c -0.2288,0 -0.2752,-0.054 -0.3664,-0.3191 l -2.1568,-6.0263 c -0.4129,-1.1128 -0.5951,-2.2205 -0.5951,-2.7486 0,-0.7964 0.3663,-1.2695 1.6047,-1.2695 h 0.5968 c 0.504,0 0.5968,-0.2114 0.5968,-0.478 0,-0.3682 -0.2305,-0.4732 -0.6415,-0.4732 -1.333,0 -3.2147,0.1585 -4.4995,0.1585 -0.4128,0 -2.5697,-0.1585 -4.6802,-0.1585 -0.5039,0 -0.7343,0.105 -0.7343,0.4732 0,0.2666 0.1375,0.478 0.4592,0.478 0.3663,0 0.8256,0.053 1.1936,0.053 1.8353,0.3164 2.525,1.6889 3.3489,3.9646 l 10.5556,28.2863 c 0.4576,1.2681 0.7792,1.7972 1.1921,1.7972 0.5968,0 0.7807,-0.4231 1.1936,-1.4278 0.9631,-2.4841 7.709,-20.8825 10.2787,-27.7063 1.56,-4.0713 2.7074,-4.6526 3.4417,-4.8093 0.5985,-0.1047 1.0562,-0.1582 1.5154,-0.1582 0.368,0 0.5503,-0.1582 0.5503,-0.478 0,-0.3682 -0.2305,-0.4732 -1.7423,-0.4732 -1.4242,0 -4.3619,0 -7.7572,0.105 -0.7345,0.053 -1.1937,0.053 -1.1937,0.3682 0,0.2666 0.093,0.4248 0.5057,0.478 0.2769,0.053 0.5521,0.4731 0.3663,1.0046 l -3.1201,9.0398 c -0.091,0.2654 -0.2287,0.3191 -0.411,0.3191"
                                   style="fill:#231f20;fill-opacity:1;fill-rule:nonzero;stroke:none"
                                   id="path2794"
                                   inkscape:connector-curvature="0" />
                                <path
                                   d="m 1369.8258,2772.4902 c 0,-5.7651 0,-8.6169 0.8704,-9.4631 0.6897,-0.688 2.2497,-0.9546 5.3697,-0.9546 2.157,0 3.7171,0.053 4.7266,1.271 0.5057,0.5796 0.9184,1.8508 1.0097,2.697 0.046,0.4231 0.1376,0.6846 0.4593,0.6846 0.2751,0 0.3663,-0.4731 0.3663,-1.0046 0,-0.5262 -0.2753,-3.8562 -0.5968,-5.179 -0.2753,-1.0044 -0.4576,-1.2158 -2.5698,-1.2158 -2.8913,0 -5.2305,0.053 -7.2498,0.1565 -2.0193,0.055 -3.7169,0.1084 -5.3698,0.1084 -0.4576,0 -1.3295,-0.053 -2.2945,-0.053 -0.9631,-0.055 -1.9728,-0.105 -2.7983,-0.105 -0.5058,0 -0.781,0.1585 -0.781,0.4732 0,0.2131 0.1377,0.478 0.6433,0.478 0.5969,0 1.0561,0.053 1.4225,0.1582 0.8255,0.2117 1.056,1.0579 1.1936,2.3772 0.1823,1.9058 0.1823,5.4456 0.1823,9.5715 v 7.9307 c 0,6.821 0,8.0894 -0.045,9.5171 -0.093,1.5334 -0.4592,2.009 -1.744,2.4321 -0.3216,0.106 -0.8255,0.1597 -1.3313,0.1597 -0.4592,0 -0.688,0.1579 -0.688,0.4753 0,0.3174 0.2736,0.4234 0.8721,0.4234 1.8817,0 4.4513,-0.106 5.5521,-0.106 0.9633,0 4.2674,0.106 5.8274,0.106 0.5968,0 0.8721,-0.106 0.8721,-0.4234 0,-0.3174 -0.2288,-0.4753 -0.7345,-0.4753 -0.4575,0 -1.1007,-0.054 -1.5601,-0.1597 -1.1007,-0.2117 -1.4224,-0.8464 -1.5135,-2.4321 -0.091,-1.4277 -0.091,-2.6961 -0.091,-9.5171"
                                   style="fill:#231f20;fill-opacity:1;fill-rule:nonzero;stroke:none"
                                   id="path2796"
                                   inkscape:connector-curvature="0" />
                                </g>
                              </g>
                            </g>
                          </g>
                        </g>
                      </g>
                    </g>
                  </g>
                </g>
              </g>
            </g>
          </g>
        </g>
      </g>
    </g>
  </g>
</svg>
