<svg xmlns="http://www.w3.org/2000/svg" viewBox="0 0 64 72" fill="none">
  <defs>
    <linearGradient id="fg" x1="0" y1="0" x2="1" y2="1">
      <stop offset="0%" stop-color="#00b4d8"/>
      <stop offset="50%" stop-color="#e8531e"/>
      <stop offset="100%" stop-color="#e8531e"/>
    </linearGradient>
  </defs>
  <g stroke="#00b4d8" stroke-width="2.5" stroke-linecap="round">
    <line x1="28" y1="4" x2="28" y2="14"/><line x1="25" y1="6" x2="28" y2="10"/><line x1="31" y1="6" x2="28" y2="10"/>
    <line x1="10" y1="28" x2="2" y2="28"/><line x1="8" y1="25" x2="4" y2="28"/><line x1="8" y1="31" x2="4" y2="28"/>
    <line x1="14" y1="50" x2="8" y2="56"/><line x1="11" y1="49" x2="10" y2="53"/><line x1="16" y1="55" x2="10" y2="53"/>
  </g>
  <path d="M34 66 C34 66 14 48 14 34 C14 22 22 14 30 8 C28 18 34 24 38 28 C42 24 40 16 40 12 C48 18 56 28 56 38 C56 52 42 66 34 66Z" fill="url(#fg)"/>
  <path d="M34 66 C34 66 24 56 24 46 C24 38 30 34 34 30 C32 38 36 42 38 44 C40 42 38 36 40 34 C44 38 46 44 46 48 C46 58 40 66 34 66Z" fill="#ff9f1c" opacity="0.7"/>
  <circle cx="20" cy="40" r="2" fill="#00b4d8" opacity="0.8"/>
  <circle cx="16" cy="32" r="1.5" fill="#90e0ef"/>
</svg>